<?xml version="1.0" standalone="no"?>
<!DOCTYPE svg PUBLIC "-//W3C//DTD SVG 20010904//EN"
 "http://www.w3.org/TR/2001/REC-SVG-20010904/DTD/svg10.dtd">
<svg version="1.0" xmlns="http://www.w3.org/2000/svg"
 width="727.000000pt" height="698.000000pt" viewBox="0 0 727.000000 698.000000"
 preserveAspectRatio="xMidYMid meet">
<metadata>
Created by potrace 1.16, written by Peter Selinger 2001-2019
</metadata>
<g transform="translate(0.000000,698.000000) scale(0.100000,-0.100000)"
fill="#24A901" stroke="none">
<path d="M5937 6908 c-9 -24 -24 -65 -33 -93 -9 -27 -19 -52 -23 -55 -3 -3
-19 -59 -35 -125 -26 -105 -50 -188 -123 -412 -9 -29 -20 -53 -24 -53 -4 0
-10 -25 -14 -56 -4 -31 -29 -124 -56 -207 -27 -84 -58 -186 -68 -228 -37 -150
-108 -329 -131 -329 -6 0 -29 12 -53 27 -48 30 -450 227 -487 238 -14 4 -61
22 -105 40 -137 56 -474 164 -610 196 -71 17 -159 39 -195 49 -36 10 -99 22
-140 25 -41 4 -100 13 -130 20 -78 18 -124 20 -495 19 -245 0 -342 -4 -375
-14 -63 -19 -68 -20 -137 -29 -148 -21 -444 -152 -594 -263 -105 -77 -291
-258 -285 -275 3 -8 2 -11 -4 -8 -16 10 -76 -64 -184 -225 -137 -205 -222
-375 -290 -580 -68 -206 -122 -384 -131 -430 -3 -19 -15 -62 -25 -95 -25 -85
-59 -231 -66 -290 -3 -27 -14 -77 -24 -110 -10 -34 -21 -88 -25 -120 -4 -33
-14 -78 -22 -100 -8 -22 -20 -87 -28 -145 -25 -192 -72 -419 -117 -565 -16
-55 -35 -116 -40 -135 -6 -19 -19 -57 -29 -85 -10 -27 -36 -102 -58 -165 -22
-63 -53 -146 -70 -183 -17 -38 -31 -73 -31 -78 0 -6 -15 -42 -33 -82 -58 -123
-95 -209 -123 -282 -39 -101 -198 -417 -255 -505 -27 -42 -58 -98 -70 -125
-12 -28 -30 -61 -41 -75 -10 -14 -43 -62 -74 -108 l-55 -82 78 -36 c43 -20 94
-38 113 -41 19 -3 64 -20 100 -38 36 -18 81 -37 100 -43 19 -6 146 -49 282
-95 136 -47 273 -91 305 -97 31 -7 102 -27 158 -45 117 -37 307 -85 350 -87
28 -1 63 -9 235 -58 36 -10 119 -30 185 -44 66 -15 158 -35 205 -46 47 -11
114 -22 150 -26 36 -3 97 -14 135 -24 39 -10 97 -21 130 -25 33 -3 89 -13 125
-21 36 -8 110 -17 165 -20 55 -3 125 -10 155 -16 30 -6 78 -14 105 -19 83 -13
1274 -5 1315 9 19 7 89 17 155 23 66 5 134 14 150 19 17 5 68 16 114 24 54 10
97 24 122 41 64 42 53 50 -76 58 -73 5 -191 39 -266 78 -130 66 -338 242 -424
359 -65 89 -135 223 -172 333 l-38 112 0 230 c0 228 0 231 29 310 15 44 42
109 59 145 17 36 31 71 30 77 0 7 3 10 8 7 5 -3 9 0 9 7 0 30 84 145 179 242
72 74 137 129 206 174 55 37 112 74 126 84 28 18 169 57 309 84 47 9 108 21
136 27 52 10 68 8 222 -26 40 -9 95 -18 122 -19 27 -2 55 -9 63 -15 7 -7 17
-9 20 -5 4 3 7 2 7 -4 0 -6 37 -27 83 -46 113 -47 210 -112 313 -210 138 -131
271 -343 315 -504 12 -43 28 -90 35 -105 10 -20 14 -73 14 -201 0 -144 -3
-186 -19 -238 -11 -35 -23 -82 -27 -104 -12 -67 -51 -160 -98 -233 -24 -38
-52 -84 -61 -103 -10 -19 -28 -45 -41 -59 -12 -14 -28 -38 -33 -53 l-11 -28
40 22 c21 12 36 27 33 32 -3 6 -2 7 4 4 11 -7 137 77 221 148 33 28 86 71 119
96 33 26 86 82 119 125 32 44 84 110 115 147 56 67 129 179 129 198 0 5 18 33
39 62 46 62 89 146 125 244 14 40 35 91 46 113 11 22 17 40 13 40 -5 0 -3 4 4
8 17 11 117 319 148 457 14 66 33 145 40 175 8 30 17 87 20 125 4 39 16 104
27 145 18 66 20 103 20 296 -1 162 -5 231 -16 260 -7 22 -19 67 -26 100 -25
129 -104 351 -168 479 -67 132 -226 377 -351 540 -92 120 -351 388 -417 430
-29 18 -90 67 -136 107 -45 41 -111 95 -145 121 -53 40 -103 94 -103 110 0 2
19 17 42 32 51 34 460 436 649 638 77 82 139 157 139 167 0 9 7 23 15 30 8 7
12 17 8 23 -3 5 -2 7 4 4 13 -8 86 67 76 77 -5 4 -3 6 4 4 6 -2 55 40 110 93
l98 96 -115 76 c-63 42 -225 149 -360 238 -135 89 -252 168 -260 175 -46 43
-298 194 -322 194 -9 0 -22 -18 -31 -42z"/>
</g>
</svg>
